# xmcd
#
# Track frame offsets:
#      150
#      15730
#      32722
#      48880
#      63922
#      79067
#      97817
#      112832
#      128842
#      145312
#      166035
#      187477
# 
# Disc length: 2720 seconds
#
# Revision: 2
# Processed by: cddbd v1.4PL0 Copyright (c) Steve Scherf et al.
#
# Submitted via: FreeRIP 1.21
#
DISCID=950a9e0c
DTITLE=John Lee Hooker - Sittin' Here Thinkin'
DYEAR=1999
DGENRE=Blues
TTITLE0=I Bought You A Brand New Home
TTITLE1=I Believe I'll Lose My Mind
TTITLE2=Teasin' Me
TTITLE3=My Cryin' Days Are Over
TTITLE4=Sittin' Here Thinkin'
TTITLE5=Mean Mistreatin'
TTITLE6=How Long?
TTITLE7=How Many More Years?
TTITLE8=C.C. Rider
TTITLE9=Sad And Lonesome
TTITLE10=Can't You See What You're Doin' To Me?
TTITLE11=When My Wife Quit Me
EXTD=
EXTT0=
EXTT1=
EXTT2=
EXTT3=
EXTT4=
EXTT5=
EXTT6=
EXTT7=
EXTT8=
EXTT9=
EXTT10=
EXTT11=
PLAYORDER=
